G04*
G04 #@! TF.GenerationSoftware,Altium Limited,Altium Designer,18.1.7 (191)*
G04*
G04 Layer_Color=8388736*
%FSLAX24Y24*%
%MOIN*%
G70*
G01*
G75*
%ADD25C,0.0250*%
%ADD60R,0.0631X0.0277*%
%ADD61R,0.1182X0.1182*%
%ADD62R,0.0395X0.0356*%
%ADD63R,0.0434X0.0552*%
%ADD64R,0.0356X0.0592*%
%ADD65R,0.0240X0.0705*%
%ADD66R,0.0320X0.0730*%
%ADD67O,0.0718X0.0246*%
%ADD68R,0.0434X0.0474*%
%ADD69R,0.0592X0.0356*%
%ADD70R,0.0592X0.0828*%
%ADD71R,0.0474X0.1182*%
%ADD72R,0.0474X0.0552*%
%ADD73R,0.0356X0.0552*%
%ADD74R,0.0474X0.0395*%
%ADD75R,0.1182X0.1182*%
%ADD76R,0.0552X0.0434*%
%ADD77R,0.0356X0.0395*%
%ADD78R,0.0671X0.0237*%
%ADD79R,0.0198X0.0631*%
%ADD80R,0.0631X0.0198*%
%ADD81R,0.3655X0.3655*%
%ADD82R,0.0249X0.0722*%
%ADD83R,0.2088X0.2088*%
%ADD84R,0.0190X0.0399*%
%ADD85R,0.0399X0.0190*%
%ADD86R,0.3360X0.2080*%
%ADD87R,0.0680X0.0930*%
%ADD88R,0.4330X0.0830*%
%ADD89R,0.0830X0.4330*%
%ADD90R,0.0930X0.0680*%
%ADD91R,0.2080X0.3360*%
%ADD92R,0.1576X0.0926*%
%ADD93R,0.0671X0.0926*%
%ADD94C,0.0787*%
%ADD95C,0.0680*%
%ADD96C,0.0867*%
%ADD97O,0.1537X0.0434*%
%ADD98C,0.0749*%
%ADD99R,0.0749X0.0749*%
%ADD100C,0.1954*%
%ADD101R,0.0671X0.0671*%
%ADD102C,0.0671*%
%ADD103C,0.2442*%
%ADD104C,0.0946*%
%ADD105C,0.1360*%
%ADD106C,0.0631*%
%ADD107C,0.0360*%
%ADD108C,0.0580*%
D25*
X-24Y-25D02*
X47219D01*
Y39367D01*
X-24D02*
X47219D01*
X-24D02*
X-24Y-25D01*
D60*
X2070Y16630D02*
D03*
Y16315D02*
D03*
Y16000D02*
D03*
Y15685D02*
D03*
Y15370D02*
D03*
X2070Y23370D02*
D03*
Y23685D02*
D03*
Y24000D02*
D03*
Y24315D02*
D03*
Y24630D02*
D03*
D61*
X2990Y30168D02*
D03*
Y31940D02*
D03*
X3457Y27593D02*
D03*
Y25822D02*
D03*
X11500Y32332D02*
D03*
Y30560D02*
D03*
D62*
X12340Y1044D02*
D03*
Y414D02*
D03*
X43230Y28000D02*
D03*
Y27370D02*
D03*
X42496Y28000D02*
D03*
Y27370D02*
D03*
X41762Y28000D02*
D03*
Y27370D02*
D03*
X41028Y28000D02*
D03*
Y27370D02*
D03*
X40294Y28000D02*
D03*
Y27370D02*
D03*
X43178Y31227D02*
D03*
Y30597D02*
D03*
X42448Y31227D02*
D03*
Y30597D02*
D03*
X41719Y31227D02*
D03*
Y30597D02*
D03*
X40989Y31227D02*
D03*
Y30597D02*
D03*
X40261Y31227D02*
D03*
Y30597D02*
D03*
X26444Y1833D02*
D03*
Y1203D02*
D03*
X27161Y1833D02*
D03*
Y1203D02*
D03*
X27877Y1833D02*
D03*
Y1203D02*
D03*
X25011Y1833D02*
D03*
Y1203D02*
D03*
X25728Y1833D02*
D03*
Y1203D02*
D03*
X22861Y1833D02*
D03*
Y1203D02*
D03*
X23578Y1833D02*
D03*
Y1203D02*
D03*
X24294Y1833D02*
D03*
Y1203D02*
D03*
D63*
X20194Y1351D02*
D03*
X19368D02*
D03*
X2882Y17472D02*
D03*
X3709D02*
D03*
X5440Y26443D02*
D03*
X4614D02*
D03*
X5460Y25573D02*
D03*
X4634D02*
D03*
X10272Y18337D02*
D03*
X11099D02*
D03*
X10264Y17452D02*
D03*
X11091D02*
D03*
X17673Y33734D02*
D03*
X18500D02*
D03*
X16230Y33739D02*
D03*
X17057D02*
D03*
D64*
X19382Y605D02*
D03*
X20130D02*
D03*
X35895Y29935D02*
D03*
X35147D02*
D03*
X32635Y29937D02*
D03*
X33383D02*
D03*
X2632Y28960D02*
D03*
X3380D02*
D03*
X26206Y8223D02*
D03*
X25458D02*
D03*
X32385Y9890D02*
D03*
X31637D02*
D03*
X32220Y13205D02*
D03*
X31472D02*
D03*
X26251Y14408D02*
D03*
X25503D02*
D03*
X8372Y21766D02*
D03*
X9120D02*
D03*
X33407Y21614D02*
D03*
X32659D02*
D03*
X33416Y22328D02*
D03*
X32668D02*
D03*
X33417Y23458D02*
D03*
X32668D02*
D03*
X33416Y24178D02*
D03*
X32668D02*
D03*
X33422Y24918D02*
D03*
X32674D02*
D03*
X25448Y8983D02*
D03*
X26196D02*
D03*
X26221Y9839D02*
D03*
X25473D02*
D03*
X25477Y10620D02*
D03*
X26225D02*
D03*
X25467Y11360D02*
D03*
X26215D02*
D03*
X25486Y12175D02*
D03*
X26234D02*
D03*
X25476Y12923D02*
D03*
X26224D02*
D03*
X25476Y13673D02*
D03*
X26224D02*
D03*
X36180Y8028D02*
D03*
X36928D02*
D03*
X36180Y9204D02*
D03*
X36928D02*
D03*
X36180Y9947D02*
D03*
X36928D02*
D03*
X36180Y11140D02*
D03*
X36928D02*
D03*
X36180Y11883D02*
D03*
X36928D02*
D03*
X36180Y13135D02*
D03*
X36928D02*
D03*
X36180Y13878D02*
D03*
X36928D02*
D03*
X36180Y14938D02*
D03*
X36928D02*
D03*
X2966Y24631D02*
D03*
X3714D02*
D03*
X2939Y16702D02*
D03*
X3687D02*
D03*
X9068Y16117D02*
D03*
X8320D02*
D03*
D65*
X27754Y33033D02*
D03*
X28014D02*
D03*
X28274D02*
D03*
X28534D02*
D03*
X28794D02*
D03*
X29054D02*
D03*
X29314D02*
D03*
X29574D02*
D03*
Y30638D02*
D03*
X29314D02*
D03*
X29054D02*
D03*
X28794D02*
D03*
X28534D02*
D03*
X28274D02*
D03*
X28014D02*
D03*
X27754D02*
D03*
D66*
X32756Y30953D02*
D03*
X33256D02*
D03*
X33756D02*
D03*
X34256D02*
D03*
X34756D02*
D03*
X35256D02*
D03*
X35756D02*
D03*
X36256D02*
D03*
Y33183D02*
D03*
X35756D02*
D03*
X35256D02*
D03*
X34756D02*
D03*
X34256D02*
D03*
X33756D02*
D03*
X33256D02*
D03*
X32756D02*
D03*
D67*
X40766Y24322D02*
D03*
Y24066D02*
D03*
Y23810D02*
D03*
Y23554D02*
D03*
Y23298D02*
D03*
Y23042D02*
D03*
Y22786D02*
D03*
Y22530D02*
D03*
Y22274D02*
D03*
Y22018D02*
D03*
X43089Y24322D02*
D03*
Y24066D02*
D03*
Y23810D02*
D03*
Y23554D02*
D03*
Y23298D02*
D03*
Y23042D02*
D03*
Y22786D02*
D03*
Y22530D02*
D03*
Y22274D02*
D03*
Y22018D02*
D03*
D68*
X33786Y19868D02*
D03*
Y19120D02*
D03*
X32960Y19868D02*
D03*
Y19120D02*
D03*
D69*
X15236Y7081D02*
D03*
Y7829D02*
D03*
X33617Y9430D02*
D03*
Y10178D02*
D03*
X30471Y8356D02*
D03*
Y9104D02*
D03*
X28111Y8316D02*
D03*
Y9064D02*
D03*
X27381Y8316D02*
D03*
Y9064D02*
D03*
X29581Y8310D02*
D03*
Y9058D02*
D03*
X28851Y9064D02*
D03*
Y8316D02*
D03*
X27937Y14665D02*
D03*
Y13917D02*
D03*
X31211Y9094D02*
D03*
Y8346D02*
D03*
X45628Y16704D02*
D03*
Y17452D02*
D03*
X45608Y18594D02*
D03*
Y19342D02*
D03*
X1594Y27528D02*
D03*
Y26780D02*
D03*
X35431Y16769D02*
D03*
Y17517D02*
D03*
X35451Y14879D02*
D03*
Y15627D02*
D03*
D70*
X18524Y376D02*
D03*
D71*
X13209Y554D02*
D03*
D72*
X17598Y6321D02*
D03*
X13209Y4628D02*
D03*
D73*
X13583Y6321D02*
D03*
X16555D02*
D03*
X16122Y6321D02*
D03*
X15689Y6321D02*
D03*
X13957Y6321D02*
D03*
X14390Y6321D02*
D03*
X14823Y6321D02*
D03*
X15256Y6321D02*
D03*
X16988Y6321D02*
D03*
D74*
X13209Y2187D02*
D03*
D75*
X21213Y17447D02*
D03*
X22984D02*
D03*
X10835Y26758D02*
D03*
X12607D02*
D03*
X12204Y18077D02*
D03*
X13975D02*
D03*
D76*
X41978Y18435D02*
D03*
Y19262D02*
D03*
X42018Y16615D02*
D03*
Y17442D02*
D03*
X796Y26799D02*
D03*
Y27626D02*
D03*
X31841Y14789D02*
D03*
Y15616D02*
D03*
X31801Y16609D02*
D03*
Y17436D02*
D03*
X11150Y28693D02*
D03*
Y29520D02*
D03*
X11990Y28687D02*
D03*
Y29513D02*
D03*
D77*
X9075Y23768D02*
D03*
X8445D02*
D03*
X9074Y22801D02*
D03*
X8444D02*
D03*
X1861Y18806D02*
D03*
X1231D02*
D03*
X1836Y19661D02*
D03*
X1206D02*
D03*
X1840Y20496D02*
D03*
X1211D02*
D03*
X1840Y21315D02*
D03*
X1211D02*
D03*
X8392Y17152D02*
D03*
X9022D02*
D03*
X8393Y18119D02*
D03*
X9023D02*
D03*
D78*
X4569Y24264D02*
D03*
Y24009D02*
D03*
Y23753D02*
D03*
Y23497D02*
D03*
Y23241D02*
D03*
Y22985D02*
D03*
Y22729D02*
D03*
Y22473D02*
D03*
Y22217D02*
D03*
Y21961D02*
D03*
Y21705D02*
D03*
Y21449D02*
D03*
Y21194D02*
D03*
Y20938D02*
D03*
X7424D02*
D03*
Y21194D02*
D03*
Y21449D02*
D03*
Y21705D02*
D03*
Y21961D02*
D03*
Y22217D02*
D03*
Y22473D02*
D03*
Y22729D02*
D03*
Y22985D02*
D03*
Y23241D02*
D03*
Y23497D02*
D03*
Y23753D02*
D03*
Y24009D02*
D03*
Y24264D02*
D03*
X7372Y18616D02*
D03*
Y18360D02*
D03*
Y18104D02*
D03*
Y17848D02*
D03*
Y17592D02*
D03*
Y17336D02*
D03*
Y17080D02*
D03*
Y16824D02*
D03*
Y16568D02*
D03*
Y16312D02*
D03*
Y16057D02*
D03*
Y15801D02*
D03*
Y15545D02*
D03*
Y15289D02*
D03*
X4517D02*
D03*
Y15545D02*
D03*
Y15801D02*
D03*
Y16057D02*
D03*
Y16312D02*
D03*
Y16568D02*
D03*
Y16824D02*
D03*
Y17080D02*
D03*
Y17336D02*
D03*
Y17592D02*
D03*
Y17848D02*
D03*
Y18104D02*
D03*
Y18360D02*
D03*
Y18616D02*
D03*
D79*
X31053Y26570D02*
D03*
X30856D02*
D03*
X30659D02*
D03*
X30462D02*
D03*
X30265D02*
D03*
X30069D02*
D03*
X29872D02*
D03*
X29675D02*
D03*
X29478D02*
D03*
X29281D02*
D03*
X29084D02*
D03*
X28887D02*
D03*
X28691D02*
D03*
X28494D02*
D03*
X28297D02*
D03*
X28100D02*
D03*
X27903D02*
D03*
X27706D02*
D03*
X27510D02*
D03*
X27313D02*
D03*
X27116D02*
D03*
X26919D02*
D03*
X26722D02*
D03*
X26525D02*
D03*
X26328D02*
D03*
X26132D02*
D03*
X25935D02*
D03*
X25738D02*
D03*
X25541D02*
D03*
X25344D02*
D03*
X25147D02*
D03*
X24950D02*
D03*
X24754D02*
D03*
X24557D02*
D03*
X24360D02*
D03*
X24163D02*
D03*
Y18145D02*
D03*
X24360D02*
D03*
X24557D02*
D03*
X24754D02*
D03*
X24950D02*
D03*
X25147D02*
D03*
X25344D02*
D03*
X25541D02*
D03*
X25738D02*
D03*
X25935D02*
D03*
X26132D02*
D03*
X26328D02*
D03*
X26525D02*
D03*
X26722D02*
D03*
X26919D02*
D03*
X27116D02*
D03*
X27313D02*
D03*
X27510D02*
D03*
X27706D02*
D03*
X27903D02*
D03*
X28100D02*
D03*
X28297D02*
D03*
X28494D02*
D03*
X28691D02*
D03*
X28887D02*
D03*
X29084D02*
D03*
X29281D02*
D03*
X29478D02*
D03*
X29675D02*
D03*
X29872D02*
D03*
X30069D02*
D03*
X30265D02*
D03*
X30462D02*
D03*
X30659D02*
D03*
X30856D02*
D03*
X31053D02*
D03*
D80*
X23395Y25803D02*
D03*
Y25606D02*
D03*
Y25409D02*
D03*
Y25212D02*
D03*
Y25015D02*
D03*
Y24818D02*
D03*
Y24622D02*
D03*
Y24425D02*
D03*
Y24228D02*
D03*
Y24031D02*
D03*
Y23834D02*
D03*
Y23637D02*
D03*
Y23441D02*
D03*
Y23244D02*
D03*
Y23047D02*
D03*
Y22850D02*
D03*
Y22653D02*
D03*
Y22456D02*
D03*
Y22259D02*
D03*
Y22063D02*
D03*
Y21866D02*
D03*
Y21669D02*
D03*
Y21472D02*
D03*
Y21275D02*
D03*
Y21078D02*
D03*
Y20881D02*
D03*
Y20685D02*
D03*
Y20488D02*
D03*
Y20291D02*
D03*
Y20094D02*
D03*
Y19897D02*
D03*
Y19700D02*
D03*
Y19504D02*
D03*
Y19307D02*
D03*
Y19110D02*
D03*
Y18913D02*
D03*
X31821D02*
D03*
Y19110D02*
D03*
Y19307D02*
D03*
Y19504D02*
D03*
Y19700D02*
D03*
Y19897D02*
D03*
Y20094D02*
D03*
Y20291D02*
D03*
Y20488D02*
D03*
Y20685D02*
D03*
Y20881D02*
D03*
Y21078D02*
D03*
Y21275D02*
D03*
Y21472D02*
D03*
Y21669D02*
D03*
Y21866D02*
D03*
Y22063D02*
D03*
Y22259D02*
D03*
Y22456D02*
D03*
Y22653D02*
D03*
Y22850D02*
D03*
Y23047D02*
D03*
Y23244D02*
D03*
Y23441D02*
D03*
Y23637D02*
D03*
Y23834D02*
D03*
Y24031D02*
D03*
Y24228D02*
D03*
Y24425D02*
D03*
Y24622D02*
D03*
Y24818D02*
D03*
Y25015D02*
D03*
Y25212D02*
D03*
Y25409D02*
D03*
Y25606D02*
D03*
Y25803D02*
D03*
D81*
X27608Y22358D02*
D03*
D82*
X18250Y30150D02*
D03*
X17994D02*
D03*
X17739D02*
D03*
X17483D02*
D03*
X17227D02*
D03*
X16971D02*
D03*
X16715D02*
D03*
X16459D02*
D03*
X16203D02*
D03*
X15947D02*
D03*
X15947Y32783D02*
D03*
X16203D02*
D03*
X16459D02*
D03*
X16715D02*
D03*
X16971D02*
D03*
X17227D02*
D03*
X17483D02*
D03*
X17739D02*
D03*
X17994D02*
D03*
X18250D02*
D03*
D83*
X29081Y11570D02*
D03*
D84*
X30163Y10212D02*
D03*
X29967D02*
D03*
X29770D02*
D03*
X29573D02*
D03*
X29376D02*
D03*
X29179D02*
D03*
X28982D02*
D03*
X28785D02*
D03*
X28589D02*
D03*
X28392D02*
D03*
X28195D02*
D03*
X27998D02*
D03*
Y12928D02*
D03*
X28195D02*
D03*
X28392D02*
D03*
X28589D02*
D03*
X28785D02*
D03*
X28982D02*
D03*
X29179D02*
D03*
X29376D02*
D03*
X29573D02*
D03*
X29770D02*
D03*
X29967D02*
D03*
X30163D02*
D03*
D85*
X27722Y10487D02*
D03*
Y10684D02*
D03*
Y10881D02*
D03*
Y11078D02*
D03*
Y11275D02*
D03*
Y11472D02*
D03*
Y11669D02*
D03*
Y11865D02*
D03*
Y12062D02*
D03*
Y12259D02*
D03*
Y12456D02*
D03*
Y12653D02*
D03*
X30439D02*
D03*
Y12456D02*
D03*
Y12259D02*
D03*
Y12062D02*
D03*
Y11865D02*
D03*
Y11669D02*
D03*
Y11472D02*
D03*
Y11275D02*
D03*
Y11078D02*
D03*
Y10881D02*
D03*
Y10684D02*
D03*
Y10487D02*
D03*
D86*
X12295Y21097D02*
D03*
D87*
X11295Y24947D02*
D03*
X12295D02*
D03*
X13295D02*
D03*
D88*
X12295Y19747D02*
D03*
D89*
X9820Y30720D02*
D03*
D90*
X4620Y31720D02*
D03*
Y30720D02*
D03*
Y29720D02*
D03*
D91*
X8470Y30720D02*
D03*
D92*
X43808Y16797D02*
D03*
X33701Y14971D02*
D03*
D93*
X42903Y19100D02*
D03*
X43808D02*
D03*
X44714D02*
D03*
X34607Y17274D02*
D03*
X33701D02*
D03*
X32796D02*
D03*
D94*
X43504Y3740D02*
D03*
Y35630D02*
D03*
X3740Y3740D02*
D03*
Y35630D02*
D03*
D95*
X37450Y25902D02*
D03*
Y24902D02*
D03*
Y23902D02*
D03*
Y22902D02*
D03*
Y21902D02*
D03*
Y20902D02*
D03*
X3173Y18871D02*
D03*
Y19871D02*
D03*
Y20871D02*
D03*
Y21871D02*
D03*
X45868Y25902D02*
D03*
Y24902D02*
D03*
Y23902D02*
D03*
Y22902D02*
D03*
Y21902D02*
D03*
Y20902D02*
D03*
X4435Y33942D02*
D03*
X5435D02*
D03*
X6435D02*
D03*
X7435D02*
D03*
X8435D02*
D03*
X9435D02*
D03*
X1180Y29030D02*
D03*
Y30030D02*
D03*
Y31030D02*
D03*
Y32030D02*
D03*
X21285Y13214D02*
D03*
Y12214D02*
D03*
Y11214D02*
D03*
Y10214D02*
D03*
X5748Y3532D02*
D03*
X6748D02*
D03*
X19317Y15314D02*
D03*
Y14314D02*
D03*
Y13314D02*
D03*
Y12314D02*
D03*
Y11314D02*
D03*
Y10314D02*
D03*
X17241Y10214D02*
D03*
Y11214D02*
D03*
Y12214D02*
D03*
Y13214D02*
D03*
X6650Y27602D02*
D03*
X5650D02*
D03*
X7650D02*
D03*
X2543Y4902D02*
D03*
X3333D02*
D03*
X4123D02*
D03*
X4913D02*
D03*
X5703D02*
D03*
X6493D02*
D03*
X7283D02*
D03*
X8073D02*
D03*
X8863D02*
D03*
X9653D02*
D03*
Y13562D02*
D03*
X8863D02*
D03*
X8073D02*
D03*
X7283D02*
D03*
X6493D02*
D03*
X5703D02*
D03*
X4913D02*
D03*
X4123D02*
D03*
X3333D02*
D03*
X2543D02*
D03*
D96*
X38025Y17748D02*
D03*
X11531Y14854D02*
D03*
X42107Y5428D02*
D03*
X38261Y34677D02*
D03*
X7312Y26228D02*
D03*
D97*
X1125Y14563D02*
D03*
Y17437D02*
D03*
X1125Y25437D02*
D03*
Y22563D02*
D03*
D98*
X32667Y36307D02*
D03*
X32122Y37425D02*
D03*
X31577Y36307D02*
D03*
X31031Y37425D02*
D03*
X30486Y36307D02*
D03*
X29941Y37425D02*
D03*
X29396Y36307D02*
D03*
X28850Y37425D02*
D03*
X14547Y36307D02*
D03*
X14002Y37425D02*
D03*
X13456Y36307D02*
D03*
X12911Y37425D02*
D03*
X12366Y36307D02*
D03*
X11820Y37425D02*
D03*
X11275Y36307D02*
D03*
X10730Y37425D02*
D03*
D99*
X28305Y36307D02*
D03*
X10185D02*
D03*
D100*
X25567Y36866D02*
D03*
X35406D02*
D03*
X7446D02*
D03*
X17285D02*
D03*
D101*
X15611Y26243D02*
D03*
D102*
Y27243D02*
D03*
X16611Y26243D02*
D03*
Y27243D02*
D03*
X17611Y26243D02*
D03*
Y27243D02*
D03*
X18611Y26243D02*
D03*
Y27243D02*
D03*
X19611Y26243D02*
D03*
Y27243D02*
D03*
X44620Y14132D02*
D03*
Y13132D02*
D03*
Y9911D02*
D03*
Y8911D02*
D03*
D103*
X45276Y37402D02*
D03*
X1969D02*
D03*
Y1969D02*
D03*
X45276D02*
D03*
D104*
X41788Y8473D02*
D03*
Y14571D02*
D03*
D105*
X42989Y9272D02*
D03*
Y13772D02*
D03*
D106*
X40489D02*
D03*
Y12772D02*
D03*
Y11772D02*
D03*
Y10772D02*
D03*
Y9772D02*
D03*
X39488Y13272D02*
D03*
Y12272D02*
D03*
Y11272D02*
D03*
Y10272D02*
D03*
Y9272D02*
D03*
D107*
X29124Y23874D02*
D03*
Y23007D02*
D03*
Y22141D02*
D03*
Y21275D02*
D03*
Y20842D02*
D03*
X28691Y23874D02*
D03*
Y23441D02*
D03*
Y23007D02*
D03*
Y22574D02*
D03*
Y22141D02*
D03*
Y21708D02*
D03*
Y21275D02*
D03*
Y20842D02*
D03*
X28258Y23874D02*
D03*
Y23441D02*
D03*
Y23007D02*
D03*
Y22574D02*
D03*
Y22141D02*
D03*
Y21708D02*
D03*
Y21275D02*
D03*
Y20842D02*
D03*
X27824Y23874D02*
D03*
Y23441D02*
D03*
Y23007D02*
D03*
Y22574D02*
D03*
Y22141D02*
D03*
Y21708D02*
D03*
Y21275D02*
D03*
Y20842D02*
D03*
X27391Y23874D02*
D03*
Y23441D02*
D03*
Y23007D02*
D03*
Y22574D02*
D03*
Y22141D02*
D03*
Y21708D02*
D03*
Y21275D02*
D03*
Y20842D02*
D03*
X26958Y23874D02*
D03*
Y23441D02*
D03*
Y23007D02*
D03*
Y22574D02*
D03*
Y22141D02*
D03*
Y21708D02*
D03*
Y21275D02*
D03*
Y20842D02*
D03*
X26525Y23874D02*
D03*
Y23441D02*
D03*
Y23007D02*
D03*
Y22574D02*
D03*
Y22141D02*
D03*
Y21708D02*
D03*
Y21275D02*
D03*
Y20842D02*
D03*
X26092Y23874D02*
D03*
Y23441D02*
D03*
Y23007D02*
D03*
Y22574D02*
D03*
Y22141D02*
D03*
Y21708D02*
D03*
Y21275D02*
D03*
Y20842D02*
D03*
X29124Y21708D02*
D03*
Y22574D02*
D03*
Y23441D02*
D03*
D108*
X11195Y20247D02*
D03*
X13445D02*
D03*
X12345D02*
D03*
X12945Y21247D02*
D03*
X11795D02*
D03*
X8320Y30220D02*
D03*
Y31370D02*
D03*
X9320Y30770D02*
D03*
Y31870D02*
D03*
Y29620D02*
D03*
M02*
