G04*
G04 #@! TF.GenerationSoftware,Altium Limited,Altium Designer,18.1.7 (191)*
G04*
G04 Layer_Color=128*
%FSLAX24Y24*%
%MOIN*%
G70*
G01*
G75*
%ADD25C,0.0250*%
%ADD27R,0.1102X0.1102*%
%ADD29R,0.0354X0.0472*%
%ADD30R,0.0276X0.0512*%
%ADD35R,0.0512X0.0276*%
%ADD42R,0.0472X0.0354*%
%ADD160R,0.0492X0.0335*%
D25*
X-24Y-25D02*
X47219D01*
Y39367D01*
X-24D02*
X47219D01*
X-24D02*
X-24Y-25D01*
D27*
X3480Y17041D02*
D03*
Y15269D02*
D03*
D29*
X32585Y25628D02*
D03*
X31758D02*
D03*
X23494Y26028D02*
D03*
X22667D02*
D03*
X16535Y28106D02*
D03*
X15708D02*
D03*
X7131Y21962D02*
D03*
X6304D02*
D03*
X6298Y22715D02*
D03*
X7125D02*
D03*
X6252Y16313D02*
D03*
X7079D02*
D03*
X15763Y5513D02*
D03*
X14936D02*
D03*
X7073Y17066D02*
D03*
X6246D02*
D03*
X42949Y24047D02*
D03*
X43776D02*
D03*
X40889Y24047D02*
D03*
X40062D02*
D03*
X6094Y17923D02*
D03*
X5267D02*
D03*
X7127Y21209D02*
D03*
X6300D02*
D03*
X31522Y24693D02*
D03*
X30695D02*
D03*
X23695Y21658D02*
D03*
X24522D02*
D03*
X23695Y22398D02*
D03*
X24522D02*
D03*
X23695Y23568D02*
D03*
X24522D02*
D03*
X23695Y24350D02*
D03*
X24522D02*
D03*
X31074Y11390D02*
D03*
X30247D02*
D03*
X31074Y12140D02*
D03*
X30247D02*
D03*
X31647Y12810D02*
D03*
X32474D02*
D03*
X31657Y13570D02*
D03*
X32484D02*
D03*
X27309Y10881D02*
D03*
X28136D02*
D03*
X31420Y9466D02*
D03*
X32247D02*
D03*
X23642Y19915D02*
D03*
X24469D02*
D03*
X23242Y18808D02*
D03*
X22415D02*
D03*
X31522Y21148D02*
D03*
X30695D02*
D03*
X31522Y20183D02*
D03*
X30695D02*
D03*
Y21918D02*
D03*
X31522D02*
D03*
X31402Y19194D02*
D03*
X32229D02*
D03*
X32578Y14938D02*
D03*
X33405D02*
D03*
X5319Y23572D02*
D03*
X6146D02*
D03*
X7097Y15551D02*
D03*
X6270D02*
D03*
X27327Y10110D02*
D03*
X28154D02*
D03*
X28114Y11660D02*
D03*
X27287D02*
D03*
D30*
X22110Y14315D02*
D03*
X21362D02*
D03*
X8561Y17135D02*
D03*
X9309D02*
D03*
X21024Y15055D02*
D03*
X21772D02*
D03*
X9408Y16107D02*
D03*
X8660D02*
D03*
X8554Y18129D02*
D03*
X9302D02*
D03*
X1540Y18806D02*
D03*
X792D02*
D03*
X8712Y21756D02*
D03*
X9460D02*
D03*
X9353Y22791D02*
D03*
X8605D02*
D03*
X9354Y23778D02*
D03*
X8606D02*
D03*
X25861Y9890D02*
D03*
X25113D02*
D03*
X25111Y10620D02*
D03*
X25859D02*
D03*
X25093Y11360D02*
D03*
X25841D02*
D03*
X25112Y12175D02*
D03*
X25860D02*
D03*
X25102Y12923D02*
D03*
X25850D02*
D03*
X25102Y13673D02*
D03*
X25850D02*
D03*
X34041Y14953D02*
D03*
X34789D02*
D03*
X44194Y16778D02*
D03*
X44942D02*
D03*
X767Y19641D02*
D03*
X1515D02*
D03*
X772Y20486D02*
D03*
X1520D02*
D03*
X772Y21325D02*
D03*
X1520D02*
D03*
D35*
X606Y13939D02*
D03*
Y13191D02*
D03*
X40309Y27752D02*
D03*
Y28500D02*
D03*
X41711Y30944D02*
D03*
Y31692D02*
D03*
X13967Y6892D02*
D03*
Y6144D02*
D03*
X14759Y6892D02*
D03*
Y6144D02*
D03*
X15871D02*
D03*
Y6892D02*
D03*
X15893Y7385D02*
D03*
Y8133D02*
D03*
X17383Y6892D02*
D03*
Y6144D02*
D03*
X22869Y1569D02*
D03*
Y2317D02*
D03*
X24304Y1569D02*
D03*
Y2317D02*
D03*
X16627Y6144D02*
D03*
Y6892D02*
D03*
X5707Y6434D02*
D03*
Y5686D02*
D03*
X12354Y1555D02*
D03*
Y807D02*
D03*
X40985Y31692D02*
D03*
Y30944D02*
D03*
X40260Y31692D02*
D03*
Y30944D02*
D03*
X43211Y27752D02*
D03*
Y28500D02*
D03*
X42485Y27752D02*
D03*
Y28500D02*
D03*
X41760D02*
D03*
Y27752D02*
D03*
X41034Y28500D02*
D03*
Y27752D02*
D03*
X23587Y2317D02*
D03*
Y1569D02*
D03*
X27891Y2317D02*
D03*
Y1569D02*
D03*
X27174D02*
D03*
Y2317D02*
D03*
X26456Y1569D02*
D03*
Y2317D02*
D03*
X25739Y1569D02*
D03*
Y2317D02*
D03*
X25022Y1569D02*
D03*
Y2317D02*
D03*
X28306Y26172D02*
D03*
Y25424D02*
D03*
X43683Y7005D02*
D03*
Y7753D02*
D03*
X42437Y31692D02*
D03*
Y30944D02*
D03*
X43162Y31692D02*
D03*
Y30944D02*
D03*
X27937Y14291D02*
D03*
Y15039D02*
D03*
X28851Y7942D02*
D03*
Y8690D02*
D03*
X30476Y8275D02*
D03*
Y7527D02*
D03*
X45560Y13360D02*
D03*
Y14108D02*
D03*
X45620Y8970D02*
D03*
Y9718D02*
D03*
D42*
X2287Y5761D02*
D03*
Y6588D02*
D03*
X17828Y32188D02*
D03*
Y31361D02*
D03*
X32331Y32475D02*
D03*
Y33302D02*
D03*
X28175Y33299D02*
D03*
Y32472D02*
D03*
X27422D02*
D03*
Y33299D02*
D03*
X33809Y19946D02*
D03*
Y19119D02*
D03*
X29068Y18417D02*
D03*
Y19243D02*
D03*
X24948Y26327D02*
D03*
Y25500D02*
D03*
X24187Y26327D02*
D03*
Y25500D02*
D03*
X26488Y26327D02*
D03*
Y25500D02*
D03*
X3044Y6588D02*
D03*
Y5761D02*
D03*
X18562Y29738D02*
D03*
Y30565D02*
D03*
X17824Y29738D02*
D03*
Y30565D02*
D03*
X1368Y13060D02*
D03*
Y13887D02*
D03*
X29561Y13253D02*
D03*
Y12427D02*
D03*
X30411Y10733D02*
D03*
Y9907D02*
D03*
X28851Y9857D02*
D03*
Y10683D02*
D03*
X25588Y18417D02*
D03*
Y19243D02*
D03*
X37414Y14802D02*
D03*
Y13975D02*
D03*
Y10922D02*
D03*
Y10095D02*
D03*
Y9033D02*
D03*
Y8206D02*
D03*
X44280Y11887D02*
D03*
Y11060D02*
D03*
X42008Y18287D02*
D03*
Y17461D02*
D03*
X35441Y16629D02*
D03*
Y17456D02*
D03*
X45618Y18455D02*
D03*
Y19282D02*
D03*
X42923Y7782D02*
D03*
Y6956D02*
D03*
X16786Y32188D02*
D03*
Y31361D02*
D03*
X33080Y32472D02*
D03*
Y33299D02*
D03*
X28268Y19243D02*
D03*
Y18417D02*
D03*
X29548Y25500D02*
D03*
Y26327D02*
D03*
X29918Y19243D02*
D03*
Y18417D02*
D03*
X24501Y19243D02*
D03*
Y18417D02*
D03*
X25718Y25500D02*
D03*
Y26327D02*
D03*
X30707Y19243D02*
D03*
Y18417D02*
D03*
X30973Y25500D02*
D03*
Y26327D02*
D03*
X28781Y12427D02*
D03*
Y13253D02*
D03*
X33641Y9120D02*
D03*
Y9947D02*
D03*
X29611Y10683D02*
D03*
Y9857D02*
D03*
X31321Y7577D02*
D03*
Y8403D02*
D03*
X39070Y14330D02*
D03*
Y15157D02*
D03*
X37414Y12080D02*
D03*
Y12907D02*
D03*
D160*
X32270Y7713D02*
D03*
Y8461D02*
D03*
X33368Y8087D02*
D03*
M02*
