G04*
G04 #@! TF.GenerationSoftware,Altium Limited,Altium Designer,18.1.7 (191)*
G04*
G04 Layer_Color=32768*
%FSLAX24Y24*%
%MOIN*%
G70*
G01*
G75*
%ADD13C,0.0100*%
%ADD16C,0.0039*%
%ADD18C,0.0080*%
%ADD20C,0.0050*%
%ADD25C,0.0250*%
D13*
X29986Y37850D02*
X30986D01*
X30486Y37350D02*
Y38350D01*
X11866Y37850D02*
X12866D01*
X12366Y37350D02*
Y38350D01*
X15688Y2921D02*
Y3921D01*
X15188Y3421D02*
X16188D01*
X43014Y11021D02*
Y12021D01*
X42514Y11521D02*
X43514D01*
X12345Y22347D02*
Y22847D01*
X12095Y22597D02*
X12595D01*
X6970Y30520D02*
Y31020D01*
X6720Y30770D02*
X7220D01*
X43808Y17688D02*
Y18188D01*
X43558Y17938D02*
X44058D01*
X33451Y16113D02*
X33951D01*
X33701Y15863D02*
Y16363D01*
D16*
X41731Y23170D02*
X42124D01*
X41928Y22973D02*
Y23367D01*
X27608Y22161D02*
Y22555D01*
X27411Y22358D02*
X27805D01*
X32622Y8087D02*
X33016D01*
X32819Y7890D02*
Y8283D01*
D18*
X33173Y19494D02*
X33573D01*
X33373Y19294D02*
Y19694D01*
D20*
X2970Y30914D02*
Y31214D01*
X2820Y31064D02*
X3120D01*
X21736Y14215D02*
Y14415D01*
X21636Y14315D02*
X21836D01*
X606Y13465D02*
Y13665D01*
X506Y13565D02*
X706D01*
X40209Y28126D02*
X40409D01*
X40309Y28026D02*
Y28226D01*
X41611Y31318D02*
X41811D01*
X41711Y31218D02*
Y31418D01*
X32071Y25628D02*
X32271D01*
X32171Y25528D02*
Y25728D01*
X22980Y26028D02*
X23180D01*
X23080Y25928D02*
Y26128D01*
X16021Y28106D02*
X16221D01*
X16121Y28006D02*
Y28206D01*
X6717Y21862D02*
Y22062D01*
X6617Y21962D02*
X6817D01*
X6612Y22715D02*
X6812D01*
X6712Y22615D02*
Y22815D01*
X6565Y16313D02*
X6765D01*
X6665Y16213D02*
Y16413D01*
X8835Y17135D02*
X9035D01*
X8935Y17035D02*
Y17235D01*
X13867Y6518D02*
X14067D01*
X13967Y6418D02*
Y6618D01*
X14659Y6518D02*
X14859D01*
X14759Y6418D02*
Y6618D01*
X15771Y6518D02*
X15971D01*
X15871Y6418D02*
Y6618D01*
X15250Y5513D02*
X15450D01*
X15350Y5413D02*
Y5613D01*
X15793Y7759D02*
X15993D01*
X15893Y7659D02*
Y7859D01*
X17283Y6518D02*
X17483D01*
X17383Y6418D02*
Y6618D01*
X22769Y1943D02*
X22969D01*
X22869Y1843D02*
Y2043D01*
X24204Y1943D02*
X24404D01*
X24304Y1843D02*
Y2043D01*
X12340Y629D02*
Y829D01*
X12240Y729D02*
X12440D01*
X19681Y1351D02*
X19881D01*
X19781Y1251D02*
Y1451D01*
X19756Y505D02*
Y705D01*
X19656Y605D02*
X19856D01*
X43230Y27585D02*
Y27785D01*
X43130Y27685D02*
X43330D01*
X42496Y27585D02*
Y27785D01*
X42396Y27685D02*
X42596D01*
X41762Y27585D02*
Y27785D01*
X41662Y27685D02*
X41862D01*
X41028Y27585D02*
Y27785D01*
X40928Y27685D02*
X41128D01*
X40294Y27585D02*
Y27785D01*
X40194Y27685D02*
X40394D01*
X43178Y30812D02*
Y31012D01*
X43078Y30912D02*
X43278D01*
X42448Y30812D02*
Y31012D01*
X42348Y30912D02*
X42548D01*
X41719Y30812D02*
Y31012D01*
X41619Y30912D02*
X41819D01*
X40989Y30812D02*
Y31012D01*
X40889Y30912D02*
X41089D01*
X40261Y30812D02*
Y31012D01*
X40161Y30912D02*
X40361D01*
X35521Y29835D02*
Y30035D01*
X35421Y29935D02*
X35621D01*
X33009Y29837D02*
Y30037D01*
X32909Y29937D02*
X33109D01*
X2906Y28960D02*
X3106D01*
X3006Y28860D02*
Y29060D01*
X3287Y26717D02*
X3587D01*
X3437Y26567D02*
Y26867D01*
X15136Y7455D02*
X15336D01*
X15236Y7355D02*
Y7555D01*
X26444Y1418D02*
Y1618D01*
X26344Y1518D02*
X26544D01*
X27161Y1418D02*
Y1618D01*
X27061Y1518D02*
X27261D01*
X27877Y1418D02*
Y1618D01*
X27777Y1518D02*
X27977D01*
X25011Y1418D02*
Y1618D01*
X24911Y1518D02*
X25111D01*
X25728Y1418D02*
Y1618D01*
X25628Y1518D02*
X25828D01*
X22089Y17278D02*
Y17578D01*
X21939Y17428D02*
X22239D01*
X41878Y18848D02*
X42078D01*
X41978Y18748D02*
Y18948D01*
X41918Y17028D02*
X42118D01*
X42018Y16928D02*
Y17128D01*
X696Y27213D02*
X896D01*
X796Y27113D02*
Y27313D01*
X8760Y23668D02*
Y23868D01*
X8660Y23768D02*
X8860D01*
X8759Y22701D02*
Y22901D01*
X8659Y22801D02*
X8859D01*
X1546Y18706D02*
Y18906D01*
X1446Y18806D02*
X1646D01*
X1521Y19561D02*
Y19761D01*
X1421Y19661D02*
X1621D01*
X1526Y20396D02*
Y20596D01*
X1426Y20496D02*
X1626D01*
X1526Y21215D02*
Y21415D01*
X1426Y21315D02*
X1626D01*
X25832Y8123D02*
Y8323D01*
X25732Y8223D02*
X25932D01*
X31911Y9890D02*
X32111D01*
X32011Y9790D02*
Y9990D01*
X31746Y13205D02*
X31946D01*
X31846Y13105D02*
Y13305D01*
X33617Y9704D02*
Y9904D01*
X33517Y9804D02*
X33717D01*
X25877Y14308D02*
Y14508D01*
X25777Y14408D02*
X25977D01*
X8646Y21766D02*
X8846D01*
X8746Y21666D02*
Y21866D01*
X32933Y21614D02*
X33133D01*
X33033Y21514D02*
Y21714D01*
X32942Y22328D02*
X33142D01*
X33042Y22228D02*
Y22428D01*
X32943Y23458D02*
X33143D01*
X33043Y23358D02*
Y23558D01*
X32942Y24178D02*
X33142D01*
X33042Y24078D02*
Y24278D01*
X32948Y24918D02*
X33148D01*
X33048Y24818D02*
Y25018D01*
X30471Y8630D02*
Y8830D01*
X30371Y8730D02*
X30571D01*
X28111Y8590D02*
Y8790D01*
X28011Y8690D02*
X28211D01*
X25722Y8983D02*
X25922D01*
X25822Y8883D02*
Y9083D01*
X27381Y8590D02*
Y8790D01*
X27281Y8690D02*
X27481D01*
X29581Y8584D02*
Y8784D01*
X29481Y8684D02*
X29681D01*
X25747Y9839D02*
X25947D01*
X25847Y9739D02*
Y9939D01*
X28851Y8590D02*
Y8790D01*
X28751Y8690D02*
X28951D01*
X25751Y10620D02*
X25951D01*
X25851Y10520D02*
Y10720D01*
X27937Y14191D02*
Y14391D01*
X27837Y14291D02*
X28037D01*
X25741Y11360D02*
X25941D01*
X25841Y11260D02*
Y11460D01*
X25760Y12175D02*
X25960D01*
X25860Y12075D02*
Y12275D01*
X25750Y12923D02*
X25950D01*
X25850Y12823D02*
Y13023D01*
X25750Y13673D02*
X25950D01*
X25850Y13573D02*
Y13773D01*
X31211Y8620D02*
Y8820D01*
X31111Y8720D02*
X31311D01*
X36454Y8028D02*
X36654D01*
X36554Y7928D02*
Y8128D01*
X36454Y9204D02*
X36654D01*
X36554Y9104D02*
Y9304D01*
X36454Y9947D02*
X36654D01*
X36554Y9847D02*
Y10047D01*
X36454Y11140D02*
X36654D01*
X36554Y11040D02*
Y11240D01*
X36454Y11883D02*
X36654D01*
X36554Y11783D02*
Y11983D01*
X36454Y13135D02*
X36654D01*
X36554Y13035D02*
Y13235D01*
X36454Y13878D02*
X36654D01*
X36554Y13778D02*
Y13978D01*
X36454Y14938D02*
X36654D01*
X36554Y14838D02*
Y15038D01*
X45528Y17078D02*
X45728D01*
X45628Y16978D02*
Y17178D01*
X45508Y18968D02*
X45708D01*
X45608Y18868D02*
Y19068D01*
X1594Y27054D02*
Y27254D01*
X1494Y27154D02*
X1694D01*
X3295Y17372D02*
Y17572D01*
X3195Y17472D02*
X3395D01*
X35331Y17143D02*
X35531D01*
X35431Y17043D02*
Y17243D01*
X35351Y15253D02*
X35551D01*
X35451Y15153D02*
Y15353D01*
X31741Y15203D02*
X31941D01*
X31841Y15103D02*
Y15303D01*
X31701Y17023D02*
X31901D01*
X31801Y16923D02*
Y17123D01*
X5027Y26343D02*
Y26543D01*
X4927Y26443D02*
X5127D01*
X5047Y25473D02*
Y25673D01*
X4947Y25573D02*
X5147D01*
X11581Y26778D02*
X11881D01*
X11731Y26628D02*
Y26928D01*
X12949Y18096D02*
X13249D01*
X13099Y17946D02*
Y18246D01*
X10685Y18237D02*
Y18437D01*
X10585Y18337D02*
X10785D01*
X10677Y17352D02*
Y17552D01*
X10577Y17452D02*
X10777D01*
X11330Y31456D02*
X11630D01*
X11480Y31306D02*
Y31606D01*
X11050Y29107D02*
X11250D01*
X11150Y29007D02*
Y29207D01*
X11890Y29100D02*
X12090D01*
X11990Y29000D02*
Y29200D01*
X3340Y24532D02*
Y24732D01*
X3240Y24632D02*
X3440D01*
X3213Y16702D02*
X3413D01*
X3313Y16602D02*
Y16802D01*
X8694Y16017D02*
Y16217D01*
X8594Y16117D02*
X8794D01*
X8607Y17152D02*
X8807D01*
X8707Y17052D02*
Y17252D01*
X8608Y18119D02*
X8808D01*
X8708Y18019D02*
Y18219D01*
X17987Y33734D02*
X18187D01*
X18087Y33634D02*
Y33834D01*
X16543Y33739D02*
X16743D01*
X16643Y33639D02*
Y33839D01*
X22861Y1418D02*
Y1618D01*
X22761Y1518D02*
X22961D01*
X23578Y1418D02*
Y1618D01*
X23478Y1518D02*
X23678D01*
X24294Y1418D02*
Y1618D01*
X24194Y1518D02*
X24394D01*
X6660Y16966D02*
Y17166D01*
X6560Y17066D02*
X6760D01*
X21298Y15055D02*
X21498D01*
X21398Y14955D02*
Y15155D01*
X16627Y6418D02*
Y6618D01*
X16527Y6518D02*
X16727D01*
X5707Y5960D02*
Y6160D01*
X5607Y6060D02*
X5807D01*
X2187Y6175D02*
X2387D01*
X2287Y6075D02*
Y6275D01*
X12354Y1081D02*
Y1281D01*
X12254Y1181D02*
X12454D01*
X40985Y31218D02*
Y31418D01*
X40885Y31318D02*
X41085D01*
X40260Y31218D02*
Y31418D01*
X40160Y31318D02*
X40360D01*
X43111Y28126D02*
X43311D01*
X43211Y28026D02*
Y28226D01*
X42385Y28126D02*
X42585D01*
X42485Y28026D02*
Y28226D01*
X41760Y28026D02*
Y28226D01*
X41660Y28126D02*
X41860D01*
X41034Y28026D02*
Y28226D01*
X40934Y28126D02*
X41134D01*
X23587Y1843D02*
Y2043D01*
X23487Y1943D02*
X23687D01*
X27891Y1843D02*
Y2043D01*
X27791Y1943D02*
X27991D01*
X27074D02*
X27274D01*
X27174Y1843D02*
Y2043D01*
X26356Y1943D02*
X26556D01*
X26456Y1843D02*
Y2043D01*
X25639Y1943D02*
X25839D01*
X25739Y1843D02*
Y2043D01*
X24922Y1943D02*
X25122D01*
X25022Y1843D02*
Y2043D01*
X43362Y23947D02*
Y24147D01*
X43262Y24047D02*
X43462D01*
X17728Y31775D02*
X17928D01*
X17828Y31675D02*
Y31875D01*
X32231Y32888D02*
X32431D01*
X32331Y32788D02*
Y32988D01*
X28175Y32786D02*
Y32986D01*
X28075Y32886D02*
X28275D01*
X27322D02*
X27522D01*
X27422Y32786D02*
Y32986D01*
X40476Y23947D02*
Y24147D01*
X40376Y24047D02*
X40576D01*
X33709Y19532D02*
X33909D01*
X33809Y19432D02*
Y19632D01*
X8934Y16107D02*
X9134D01*
X9034Y16007D02*
Y16207D01*
X8828Y18129D02*
X9028D01*
X8928Y18029D02*
Y18229D01*
X5580Y17923D02*
X5780D01*
X5680Y17823D02*
Y18023D01*
X6713Y21109D02*
Y21309D01*
X6613Y21209D02*
X6813D01*
X3461Y15995D02*
Y16295D01*
X3311Y16145D02*
X3611D01*
X31009Y24693D02*
X31209D01*
X31109Y24593D02*
Y24793D01*
X29068Y18730D02*
Y18930D01*
X28968Y18830D02*
X29168D01*
X24009Y21658D02*
X24209D01*
X24109Y21558D02*
Y21758D01*
X24009Y22398D02*
X24209D01*
X24109Y22298D02*
Y22498D01*
X24009Y23568D02*
X24209D01*
X24109Y23468D02*
Y23668D01*
X24009Y24350D02*
X24209D01*
X24109Y24250D02*
Y24450D01*
X24948Y25813D02*
Y26013D01*
X24848Y25913D02*
X25048D01*
X24187Y25813D02*
Y26013D01*
X24087Y25913D02*
X24287D01*
X26488Y25813D02*
Y26013D01*
X26388Y25913D02*
X26588D01*
X3044Y6075D02*
Y6275D01*
X2944Y6175D02*
X3144D01*
X18562Y30051D02*
Y30251D01*
X18462Y30151D02*
X18662D01*
X17824Y30051D02*
Y30251D01*
X17724Y30151D02*
X17924D01*
X1369Y13373D02*
Y13573D01*
X1268Y13473D02*
X1469D01*
X1166Y18706D02*
Y18906D01*
X1066Y18806D02*
X1266D01*
X9086Y21656D02*
Y21856D01*
X8986Y21756D02*
X9186D01*
X8979Y22691D02*
Y22891D01*
X8879Y22791D02*
X9079D01*
X8980Y23678D02*
Y23878D01*
X8880Y23778D02*
X9080D01*
X29561Y12740D02*
Y12940D01*
X29461Y12840D02*
X29661D01*
X30561Y11390D02*
X30761D01*
X30661Y11290D02*
Y11490D01*
X30561Y12140D02*
X30761D01*
X30661Y12040D02*
Y12240D01*
X31961Y12810D02*
X32161D01*
X32061Y12710D02*
Y12910D01*
X31971Y13570D02*
X32171D01*
X32071Y13470D02*
Y13670D01*
X30411Y10220D02*
Y10420D01*
X30311Y10320D02*
X30511D01*
X28851Y10170D02*
Y10370D01*
X28751Y10270D02*
X28951D01*
X27622Y10881D02*
X27822D01*
X27722Y10781D02*
Y10981D01*
X31734Y9466D02*
X31934D01*
X31834Y9366D02*
Y9566D01*
X25487Y9790D02*
Y9990D01*
X25387Y9890D02*
X25587D01*
X25485Y10520D02*
Y10720D01*
X25385Y10620D02*
X25585D01*
X25467Y11260D02*
Y11460D01*
X25367Y11360D02*
X25567D01*
X25486Y12075D02*
Y12275D01*
X25386Y12175D02*
X25586D01*
X25476Y12823D02*
Y13023D01*
X25376Y12923D02*
X25576D01*
X25476Y13573D02*
Y13773D01*
X25376Y13673D02*
X25576D01*
X23955Y19915D02*
X24155D01*
X24055Y19815D02*
Y20015D01*
X22728Y18808D02*
X22928D01*
X22828Y18708D02*
Y18908D01*
X25588Y18730D02*
Y18930D01*
X25488Y18830D02*
X25688D01*
X31009Y21148D02*
X31209D01*
X31109Y21048D02*
Y21248D01*
X31009Y20183D02*
X31209D01*
X31109Y20083D02*
Y20283D01*
X31009Y21918D02*
X31209D01*
X31109Y21818D02*
Y22018D01*
X31716Y19194D02*
X31916D01*
X31816Y19094D02*
Y19294D01*
X37414Y14288D02*
Y14488D01*
X37314Y14388D02*
X37514D01*
X37414Y10408D02*
Y10608D01*
X37314Y10508D02*
X37514D01*
X37414Y8520D02*
Y8720D01*
X37314Y8620D02*
X37514D01*
X44280Y11374D02*
Y11574D01*
X44180Y11474D02*
X44380D01*
X28206Y25798D02*
X28406D01*
X28306Y25698D02*
Y25898D01*
X41908Y17874D02*
X42108D01*
X42008Y17774D02*
Y17974D01*
X34315Y14953D02*
X34515D01*
X34415Y14853D02*
Y15053D01*
X32991Y14838D02*
Y15038D01*
X32891Y14938D02*
X33091D01*
X35341Y17043D02*
X35541D01*
X35441Y16943D02*
Y17143D01*
X45518Y18868D02*
X45718D01*
X45618Y18768D02*
Y18968D01*
X44468Y16778D02*
X44668D01*
X44568Y16678D02*
Y16878D01*
X1041Y19641D02*
X1241D01*
X1141Y19541D02*
Y19741D01*
X1046Y20486D02*
X1246D01*
X1146Y20386D02*
Y20586D01*
X1046Y21325D02*
X1246D01*
X1146Y21225D02*
Y21425D01*
X42823Y7369D02*
X43023D01*
X42923Y7269D02*
Y7469D01*
X43683Y7279D02*
Y7479D01*
X43583Y7379D02*
X43783D01*
X16686Y31775D02*
X16886D01*
X16786Y31675D02*
Y31875D01*
X5732Y23472D02*
Y23672D01*
X5632Y23572D02*
X5832D01*
X6683Y15451D02*
Y15651D01*
X6583Y15551D02*
X6783D01*
X32980Y32886D02*
X33180D01*
X33080Y32786D02*
Y32986D01*
X42437Y31218D02*
Y31418D01*
X42337Y31318D02*
X42537D01*
X43162Y31218D02*
Y31418D01*
X43062Y31318D02*
X43262D01*
X28168Y18830D02*
X28368D01*
X28268Y18730D02*
Y18930D01*
X29448Y25913D02*
X29648D01*
X29548Y25813D02*
Y26013D01*
X29818Y18830D02*
X30018D01*
X29918Y18730D02*
Y18930D01*
X24401Y18830D02*
X24601D01*
X24501Y18730D02*
Y18930D01*
X25618Y25913D02*
X25818D01*
X25718Y25813D02*
Y26013D01*
X30607Y18830D02*
X30807D01*
X30707Y18730D02*
Y18930D01*
X30873Y25913D02*
X31073D01*
X30973Y25813D02*
Y26013D01*
X27741Y10010D02*
Y10210D01*
X27641Y10110D02*
X27841D01*
X28681Y12840D02*
X28881D01*
X28781Y12740D02*
Y12940D01*
X27701Y11560D02*
Y11760D01*
X27601Y11660D02*
X27801D01*
X33541Y9533D02*
X33741D01*
X33641Y9433D02*
Y9633D01*
X29511Y10270D02*
X29711D01*
X29611Y10170D02*
Y10370D01*
X27937Y14565D02*
Y14765D01*
X27837Y14665D02*
X28037D01*
X28851Y8216D02*
Y8416D01*
X28751Y8316D02*
X28951D01*
X31221Y7990D02*
X31421D01*
X31321Y7890D02*
Y8090D01*
X30476Y7801D02*
Y8001D01*
X30376Y7901D02*
X30576D01*
X38970Y14744D02*
X39170D01*
X39070Y14644D02*
Y14844D01*
X45560Y13634D02*
Y13834D01*
X45460Y13734D02*
X45660D01*
X45620Y9244D02*
Y9444D01*
X45520Y9344D02*
X45720D01*
X37314Y12493D02*
X37514D01*
X37414Y12393D02*
Y12593D01*
D25*
X-24Y-25D02*
X47219D01*
Y39367D01*
X-24D02*
X47219D01*
X-24D02*
X-24Y-25D01*
M02*
