M48
;Layer_Color=9474304
;FILE_FORMAT=2:4
INCH
;TYPE=PLATED
T1F00S00C0.0120
T3F00S00C0.0276
T4F00S00C0.0280
T5F00S00C0.0300
T6F00S00C0.0315
T7F00S00C0.0354
T8F00S00C0.0394
T9F00S00C0.0433
T10F00S00C0.0630
T11F00S00C0.1260
T12F00S00C0.1283
;TYPE=NON_PLATED
T13F00S00C0.1280
%
T01
X022328Y010923
X022315Y011740
X022981Y012167
X021383Y011994
X030113Y011964
X031948Y011935
X032863Y011698
X033576Y011701
X034296Y011690
X035006Y011707
X035731Y011702
X036427Y011729
X037169Y011726
X037888Y011712
X038896Y011935
X047679Y019025
X047704Y020921
X047665Y022890
X047718Y024794
X049317Y025131
X049342Y024304
X052400Y026660
X052238Y027452
X051729Y028429
X052165Y029260
X052625Y029277
X054956Y029367
X055362Y029362
X055547Y028599
X055876Y026715
X056244Y026732
X054983Y026759
X054028Y026781
X053687
X054529Y021874
X054523Y021061
X053359Y017737
X052676Y017728
X052702Y016863
X053394Y016909
X046759Y018049
X046773Y019222
X046765Y019951
X046786Y021172
Y021920
X046759Y023146
X046742Y023948
X046773Y024943
X045660Y024909
X045332Y024888
X044876Y024934
X043921Y024956
X043580
X042293Y024835
X042483Y023797
X042121Y023200
X041628Y023002
X041646Y023433
X040986Y022808
X041446Y022183
X041306Y021038
X040805Y020428
X040658Y020022
X041665Y020009
X042354Y020134
X042268Y019225
X042269Y018609
X041435Y018321
X040249Y018293
X039587Y018165
X039137Y017863
X038886Y017593
X038839Y018883
X038376Y019458
X038555Y019793
X039461Y019797
X039454Y019433
X039614Y020843
X039414Y021283
X038814Y021306
X038820Y020843
X038328Y020861
X038304Y021661
X038783Y022219
X039543Y022214
X040008Y022120
X040022Y021367
X040094Y023299
X039576Y023439
X039076Y023471
X038019
X037939Y024117
X037665Y024674
X037687Y025054
X036726Y024454
X036433Y024669
X036413Y024206
X036022Y023616
X036035Y022928
X035471Y023039
X034931Y022909
X034946Y023649
X035479Y023792
X035381Y024405
X035488Y022017
X035480Y021419
X036005Y021340
X036035Y020609
X035487Y020504
X034961Y020594
X034921Y021360
X034943Y022150
X036035Y022156
X037200Y021786
X037159Y020776
X037310Y019858
X036043Y019880
X035466Y019682
Y018611
X035461Y017964
X036030Y018235
X036465Y018246
X036036Y018964
X037746Y018285
X037254Y022827
X040383Y024956
X040791Y024737
X041622Y026603
X042058Y027435
X042518Y027452
X042342Y028832
X042643Y029511
X042913Y030066
X044232Y029964
X043970Y029117
X044849Y027542
X045255Y027537
X045439Y026773
X041055Y027709
X040856Y028649
X041254Y028948
X040932Y029432
X041123Y029781
X040885Y030161
X041317Y030291
X040293Y030213
X040309Y030676
X040875Y031143
X039124Y030842
X038691
X038258
X037824
X037391
X036958
X036525
X036092
X036142Y028756
X036535Y028784
X036921Y028753
X036828Y027660
X036328Y027648
X035827Y027651
X035529Y027354
X035238Y027142
X034894Y027460
X034465Y027309
X034183Y027606
X033315Y027791
X032669Y027099
X031506Y027781
X032247Y028855
X032961Y028819
X034163Y028649
X035091Y028653
X035738Y028649
X035362Y029294
X034471Y029356
X033882Y029469
X033899Y029897
X034638Y029910
X034006Y031228
X038501Y029052
X039061Y029087
X038887Y028649
X038123Y028646
X039914Y028645
X040112Y029082
X042658Y022961
X043606Y020077
X043324Y019575
X043384Y019076
X044106Y019570
X031367Y024041
X030997Y024797
X030869Y027052
X024339Y028446
X023584Y027696
X021879Y027679
X022554Y028424
X020250Y028573
X020236Y027666
X019162Y028107
X019164Y027157
X018569Y026776
X018477Y026109
X017843Y026058
X017910Y026622
X018128Y027337
X018163Y028113
X018565Y027751
X016868Y027825
X016891Y028107
X015902Y028145
X016249Y026671
X016795Y026647
X016820Y027054
X016770Y025802
X016128Y025427
X019054Y025674
X019545Y026117
X018279Y029734
X016124Y031011
X015694Y016301
X023965Y017047
X024690Y017052
X025876Y017157
X026647Y017066
X027381Y017036
X026951Y015830
X026261Y015658
X025780Y015745
X024898Y015739
X024301Y015850
X025902Y018279
X013000Y016759
X012268Y016754
X012679Y015765
X011378Y022888
X010580Y023009
X010609Y024077
X011306Y024039
X013050Y024957
X012772Y025378
X013868Y025646
X013816Y026909
X013830Y027310
X013510Y026698
X012682Y027718
X012000Y028931
X012020Y029663
X011524Y029362
X011531Y030189
X011998Y030490
X010926Y030482
X010907Y029668
X010937Y028813
X015150Y027967
X015041Y027072
X015093Y032721
X015202Y033616
X015430Y035750
X015420Y036641
X013783Y037924
X013074Y037227
X011323Y037545
X011372Y036789
X010589
X010551Y037626
X013394Y039290
X013372Y042331
X014485Y042250
X015315Y041909
X015411Y040518
X012570Y041600
X012654Y033373
X011983Y031310
X010913Y031320
X016822Y031450
X016847Y032296
X016887Y032743
X016920Y033474
X016943Y033756
X015954Y033794
X016301Y032320
X017962Y032271
X017894Y031707
X018529Y031757
X018620Y032425
X019216Y032806
X019214Y033756
X018617Y033400
X018215Y033762
X018180Y032986
X019106Y031323
X019639Y031784
X020528Y034636
X020783Y035243
X020524Y036427
X021209Y037118
X022932Y037131
X022260Y036414
X022622Y034150
X022090Y033724
X023724Y034581
X024077Y035194
X025907Y039061
X026411Y038920
X026694Y039564
X027254Y039439
X027998Y039594
X028427Y039584
X028553Y040756
X027806Y040753
X027827Y041202
X027754Y042055
X026702Y042049
X026157Y041843
X026991Y041364
X021191Y041992
X021847Y042728
X021072Y040187
X020299Y040803
X020951Y038677
X021784Y038698
X016627Y040830
X032776Y036252
X033180Y036036
X032759Y035550
X032706Y034398
X032402Y034674
X031907Y034824
X031887Y035197
X031990Y033382
X032394Y033197
X032745Y033050
X034098Y033005
X033948Y032631
X034317Y032206
X034494Y031668
X033899Y031866
Y033834
Y034425
X034472Y034288
X034291Y033572
X033987Y035054
X034205Y035476
X034163Y036067
X034557
X035147
X035541
X035690Y035483
X034970Y035506
X036476Y035431
X036525Y036067
X036913Y035943
X037299Y035635
X037660Y035893
X038280Y035989
X038306Y035255
X038258Y033874
X038691
X039124
Y033441
Y033007
X038691
Y033441
X038258
Y033007
Y032574
X038691
Y032141
X039124
Y031708
Y031275
X038691
Y031708
X038258
Y032141
X037824
Y032574
Y033007
Y033441
Y033874
X037391
Y033441
Y033007
Y032574
Y032141
Y031708
X037824
Y031275
X038258
X037391
X036958
Y031708
Y032141
Y032574
Y033007
Y033441
Y033874
X036525
X036092
Y033441
X036525
Y033007
X036092
Y032574
X036525
Y032141
X036092
Y031708
X036525
Y031275
X036092
X039124Y032574
X040535Y031860
X041284Y031973
X041317Y031470
X041140Y032443
X041080Y033233
X041068Y033639
X041304Y034243
X041317Y034818
X041335Y035417
X040728Y035512
X040462Y036062
X041053Y036067
X041821Y036109
X042466Y035794
X043557Y035022
X043545Y034162
X043591Y033449
X043581Y032310
X043588Y031543
X040572Y034696
X039548Y035597
X039478Y036067
X036633Y037056
X036383Y037323
X038528Y040113
X039570Y040069
X037748Y041350
X037413Y042271
X038209Y042255
X037776Y043709
X038783Y043643
X042745Y043824
X043080Y042287
X042315
X044250Y040343
X046255Y040383
X044756Y043757
X031471Y033312
X049887Y034071
X051328Y034046
X052563Y034052
X053625Y034066
X053791Y032011
X050118Y032018
X050654Y037354
X051441Y037348
X052172Y037354
X052869Y037370
X052507Y037893
X053230Y037907
X053236Y038677
X052523Y038643
X051750Y037893
X051027Y037879
X050304Y037887
X050329Y038657
X050631Y040570
X051332Y040526
X052060Y040589
X052805Y040597
X053165Y041107
X052425Y041115
X051713Y041107
X050981
X050269Y041093
X050227Y041876
X050998Y041860
X051724Y041870
X052444
X053159Y041854
T03
X047450Y030902
X055868
X029317Y025314
Y024314
Y023314
Y022314
Y021314
Y020314
X015435Y043942
X014435
X016435
X017435
X018435
X019435
X047450Y035902
Y034902
Y033902
Y032902
Y031902
X055868
Y032902
Y033902
Y034902
Y035902
T04
X021195Y030247
X022345
X023445
X022945Y031247
X021795
X019320Y039620
Y040770
Y041870
X018320Y041370
Y040220
T05
X012543Y014901
X013333
X014123
X014913
X015703
X016493
X017283
X018073
X018863
X019653
X031285Y020214
Y021214
Y022214
Y023214
X027241
Y022214
Y021214
Y020214
X019653Y023561
X018863
X018073
X017283
X016493
X015703
X014913
X014123
X013333
X012543
X013173Y028871
Y029871
Y030871
Y031871
X011180Y039030
Y040030
Y041030
Y042030
T06
X015748Y013532
X016748
X016650Y037602
X015650
X017650
T07
X049489Y019272
Y020272
Y021272
Y022272
Y023272
X050489Y023772
Y022772
Y021772
Y020772
Y019772
X029611Y036243
X028611
X027611
X026611
X025611
Y037243
X026611
X027611
X028611
X029611
T08
X054620Y018911
Y019911
Y023132
Y024132
T09
X052107Y015428
X048025Y027748
X021531Y024854
X017312Y036228
X020185Y046307
X021275
X022366
X023456
X024547
X038305
X039396
X040486
X041577
X042667
X048261Y044677
X042122Y047425
X041031
X039941
X038850
X024002
X022911
X021820
X020730
T10
X051788Y018473
Y024571
T11
X011968Y011968
X055276
Y047402
X011968
T12
X017446Y046866
X027285
X035567
X045406
T13
X052989Y019272
Y023772
M30
