G04*
G04 #@! TF.GenerationSoftware,Altium Limited,Altium Designer,18.1.7 (191)*
G04*
G04 Layer_Color=8421504*
%FSLAX24Y24*%
%MOIN*%
G70*
G01*
G75*
%ADD25C,0.0250*%
%ADD26R,0.0551X0.0197*%
%ADD27R,0.1102X0.1102*%
%ADD28R,0.0315X0.0276*%
%ADD29R,0.0354X0.0472*%
%ADD30R,0.0276X0.0512*%
%ADD31R,0.0160X0.0625*%
%ADD32R,0.0240X0.0650*%
%ADD33O,0.0630X0.0157*%
%ADD34R,0.0354X0.0394*%
%ADD35R,0.0512X0.0276*%
%ADD36R,0.0512X0.0748*%
%ADD37R,0.0394X0.1102*%
%ADD38R,0.0394X0.0472*%
%ADD39R,0.0276X0.0472*%
%ADD40R,0.0394X0.0315*%
%ADD41R,0.1102X0.1102*%
%ADD42R,0.0472X0.0354*%
%ADD43R,0.0276X0.0315*%
%ADD44R,0.0591X0.0157*%
%ADD45R,0.0118X0.0551*%
%ADD46R,0.0551X0.0118*%
%ADD47R,0.3575X0.3575*%
%ADD48R,0.0169X0.0642*%
%ADD49R,0.0110X0.0319*%
%ADD50R,0.0319X0.0110*%
%ADD51R,0.3280X0.2000*%
%ADD52R,0.0600X0.0850*%
%ADD53R,0.4250X0.0750*%
%ADD54R,0.0750X0.4250*%
%ADD55R,0.0850X0.0600*%
%ADD56R,0.2000X0.3280*%
%ADD57R,0.1496X0.0846*%
%ADD58R,0.0591X0.0846*%
%ADD59C,0.0394*%
G36*
X28451Y12201D02*
X29712D01*
Y10940D01*
X28451D01*
Y12201D01*
D02*
G37*
D25*
X-24Y-25D02*
X47219D01*
Y39367D01*
X-24D02*
X47219D01*
X-24D02*
X-24Y-25D01*
D26*
X2070Y16630D02*
D03*
Y16315D02*
D03*
Y16000D02*
D03*
Y15685D02*
D03*
Y15370D02*
D03*
X2070Y23370D02*
D03*
Y23685D02*
D03*
Y24000D02*
D03*
Y24315D02*
D03*
Y24630D02*
D03*
D27*
X2990Y30168D02*
D03*
Y31940D02*
D03*
X3457Y27593D02*
D03*
Y25822D02*
D03*
X11500Y32332D02*
D03*
Y30560D02*
D03*
D28*
X12340Y1044D02*
D03*
Y414D02*
D03*
X43230Y28000D02*
D03*
Y27370D02*
D03*
X42496Y28000D02*
D03*
Y27370D02*
D03*
X41762Y28000D02*
D03*
Y27370D02*
D03*
X41028Y28000D02*
D03*
Y27370D02*
D03*
X40294Y28000D02*
D03*
Y27370D02*
D03*
X43178Y31227D02*
D03*
Y30597D02*
D03*
X42448Y31227D02*
D03*
Y30597D02*
D03*
X41719Y31227D02*
D03*
Y30597D02*
D03*
X40989Y31227D02*
D03*
Y30597D02*
D03*
X40261Y31227D02*
D03*
Y30597D02*
D03*
X26444Y1833D02*
D03*
Y1203D02*
D03*
X27161Y1833D02*
D03*
Y1203D02*
D03*
X27877Y1833D02*
D03*
Y1203D02*
D03*
X25011Y1833D02*
D03*
Y1203D02*
D03*
X25728Y1833D02*
D03*
Y1203D02*
D03*
X22861Y1833D02*
D03*
Y1203D02*
D03*
X23578Y1833D02*
D03*
Y1203D02*
D03*
X24294Y1833D02*
D03*
Y1203D02*
D03*
D29*
X20194Y1351D02*
D03*
X19368D02*
D03*
X2882Y17472D02*
D03*
X3709D02*
D03*
X5440Y26443D02*
D03*
X4614D02*
D03*
X5460Y25573D02*
D03*
X4634D02*
D03*
X10272Y18337D02*
D03*
X11099D02*
D03*
X10264Y17452D02*
D03*
X11091D02*
D03*
X17673Y33734D02*
D03*
X18500D02*
D03*
X16230Y33739D02*
D03*
X17057D02*
D03*
D30*
X19382Y605D02*
D03*
X20130D02*
D03*
X35895Y29935D02*
D03*
X35147D02*
D03*
X32635Y29937D02*
D03*
X33383D02*
D03*
X2632Y28960D02*
D03*
X3380D02*
D03*
X26206Y8223D02*
D03*
X25458D02*
D03*
X32385Y9890D02*
D03*
X31637D02*
D03*
X32220Y13205D02*
D03*
X31472D02*
D03*
X26251Y14408D02*
D03*
X25503D02*
D03*
X8372Y21766D02*
D03*
X9120D02*
D03*
X33407Y21614D02*
D03*
X32659D02*
D03*
X33416Y22328D02*
D03*
X32668D02*
D03*
X33417Y23458D02*
D03*
X32668D02*
D03*
X33416Y24178D02*
D03*
X32668D02*
D03*
X33422Y24918D02*
D03*
X32674D02*
D03*
X25448Y8983D02*
D03*
X26196D02*
D03*
X26221Y9839D02*
D03*
X25473D02*
D03*
X25477Y10620D02*
D03*
X26225D02*
D03*
X25467Y11360D02*
D03*
X26215D02*
D03*
X25486Y12175D02*
D03*
X26234D02*
D03*
X25476Y12923D02*
D03*
X26224D02*
D03*
X25476Y13673D02*
D03*
X26224D02*
D03*
X36180Y8028D02*
D03*
X36928D02*
D03*
X36180Y9204D02*
D03*
X36928D02*
D03*
X36180Y9947D02*
D03*
X36928D02*
D03*
X36180Y11140D02*
D03*
X36928D02*
D03*
X36180Y11883D02*
D03*
X36928D02*
D03*
X36180Y13135D02*
D03*
X36928D02*
D03*
X36180Y13878D02*
D03*
X36928D02*
D03*
X36180Y14938D02*
D03*
X36928D02*
D03*
X2966Y24631D02*
D03*
X3714D02*
D03*
X2939Y16702D02*
D03*
X3687D02*
D03*
X9068Y16117D02*
D03*
X8320D02*
D03*
D31*
X27754Y33033D02*
D03*
X28014D02*
D03*
X28274D02*
D03*
X28534D02*
D03*
X28794D02*
D03*
X29054D02*
D03*
X29314D02*
D03*
X29574D02*
D03*
Y30638D02*
D03*
X29314D02*
D03*
X29054D02*
D03*
X28794D02*
D03*
X28534D02*
D03*
X28274D02*
D03*
X28014D02*
D03*
X27754D02*
D03*
D32*
X32756Y30953D02*
D03*
X33256D02*
D03*
X33756D02*
D03*
X34256D02*
D03*
X34756D02*
D03*
X35256D02*
D03*
X35756D02*
D03*
X36256D02*
D03*
Y33183D02*
D03*
X35756D02*
D03*
X35256D02*
D03*
X34756D02*
D03*
X34256D02*
D03*
X33756D02*
D03*
X33256D02*
D03*
X32756D02*
D03*
D33*
X40766Y24322D02*
D03*
Y24066D02*
D03*
Y23810D02*
D03*
Y23554D02*
D03*
Y23298D02*
D03*
Y23042D02*
D03*
Y22786D02*
D03*
Y22530D02*
D03*
Y22274D02*
D03*
Y22018D02*
D03*
X43089Y24322D02*
D03*
Y24066D02*
D03*
Y23810D02*
D03*
Y23554D02*
D03*
Y23298D02*
D03*
Y23042D02*
D03*
Y22786D02*
D03*
Y22530D02*
D03*
Y22274D02*
D03*
Y22018D02*
D03*
D34*
X33786Y19868D02*
D03*
Y19120D02*
D03*
X32960Y19868D02*
D03*
Y19120D02*
D03*
D35*
X15236Y7081D02*
D03*
Y7829D02*
D03*
X33617Y9430D02*
D03*
Y10178D02*
D03*
X30471Y8356D02*
D03*
Y9104D02*
D03*
X28111Y8316D02*
D03*
Y9064D02*
D03*
X27381Y8316D02*
D03*
Y9064D02*
D03*
X29581Y8310D02*
D03*
Y9058D02*
D03*
X28851Y9064D02*
D03*
Y8316D02*
D03*
X27937Y14665D02*
D03*
Y13917D02*
D03*
X31211Y9094D02*
D03*
Y8346D02*
D03*
X45628Y16704D02*
D03*
Y17452D02*
D03*
X45608Y18594D02*
D03*
Y19342D02*
D03*
X1594Y27528D02*
D03*
Y26780D02*
D03*
X35431Y16769D02*
D03*
Y17517D02*
D03*
X35451Y14879D02*
D03*
Y15627D02*
D03*
D36*
X18524Y376D02*
D03*
D37*
X13209Y554D02*
D03*
D38*
X17598Y6321D02*
D03*
X13209Y4628D02*
D03*
D39*
X13583Y6321D02*
D03*
X16555D02*
D03*
X16122Y6321D02*
D03*
X15689Y6321D02*
D03*
X13957Y6321D02*
D03*
X14390Y6321D02*
D03*
X14823Y6321D02*
D03*
X15256Y6321D02*
D03*
X16988Y6321D02*
D03*
D40*
X13209Y2187D02*
D03*
D41*
X21213Y17447D02*
D03*
X22984D02*
D03*
X10835Y26758D02*
D03*
X12607D02*
D03*
X12204Y18077D02*
D03*
X13975D02*
D03*
D42*
X41978Y18435D02*
D03*
Y19262D02*
D03*
X42018Y16615D02*
D03*
Y17442D02*
D03*
X796Y26799D02*
D03*
Y27626D02*
D03*
X31841Y14789D02*
D03*
Y15616D02*
D03*
X31801Y16609D02*
D03*
Y17436D02*
D03*
X11150Y28693D02*
D03*
Y29520D02*
D03*
X11990Y28687D02*
D03*
Y29513D02*
D03*
D43*
X9075Y23768D02*
D03*
X8445D02*
D03*
X9074Y22801D02*
D03*
X8444D02*
D03*
X1861Y18806D02*
D03*
X1231D02*
D03*
X1836Y19661D02*
D03*
X1206D02*
D03*
X1840Y20496D02*
D03*
X1211D02*
D03*
X1840Y21315D02*
D03*
X1211D02*
D03*
X8392Y17152D02*
D03*
X9022D02*
D03*
X8393Y18119D02*
D03*
X9023D02*
D03*
D44*
X4569Y24264D02*
D03*
Y24009D02*
D03*
Y23753D02*
D03*
Y23497D02*
D03*
Y23241D02*
D03*
Y22985D02*
D03*
Y22729D02*
D03*
Y22473D02*
D03*
Y22217D02*
D03*
Y21961D02*
D03*
Y21705D02*
D03*
Y21449D02*
D03*
Y21194D02*
D03*
Y20938D02*
D03*
X7424D02*
D03*
Y21194D02*
D03*
Y21449D02*
D03*
Y21705D02*
D03*
Y21961D02*
D03*
Y22217D02*
D03*
Y22473D02*
D03*
Y22729D02*
D03*
Y22985D02*
D03*
Y23241D02*
D03*
Y23497D02*
D03*
Y23753D02*
D03*
Y24009D02*
D03*
Y24264D02*
D03*
X7372Y18616D02*
D03*
Y18360D02*
D03*
Y18104D02*
D03*
Y17848D02*
D03*
Y17592D02*
D03*
Y17336D02*
D03*
Y17080D02*
D03*
Y16824D02*
D03*
Y16568D02*
D03*
Y16312D02*
D03*
Y16057D02*
D03*
Y15801D02*
D03*
Y15545D02*
D03*
Y15289D02*
D03*
X4517D02*
D03*
Y15545D02*
D03*
Y15801D02*
D03*
Y16057D02*
D03*
Y16312D02*
D03*
Y16568D02*
D03*
Y16824D02*
D03*
Y17080D02*
D03*
Y17336D02*
D03*
Y17592D02*
D03*
Y17848D02*
D03*
Y18104D02*
D03*
Y18360D02*
D03*
Y18616D02*
D03*
D45*
X31053Y26570D02*
D03*
X30856D02*
D03*
X30659D02*
D03*
X30462D02*
D03*
X30265D02*
D03*
X30069D02*
D03*
X29872D02*
D03*
X29675D02*
D03*
X29478D02*
D03*
X29281D02*
D03*
X29084D02*
D03*
X28887D02*
D03*
X28691D02*
D03*
X28494D02*
D03*
X28297D02*
D03*
X28100D02*
D03*
X27903D02*
D03*
X27706D02*
D03*
X27510D02*
D03*
X27313D02*
D03*
X27116D02*
D03*
X26919D02*
D03*
X26722D02*
D03*
X26525D02*
D03*
X26328D02*
D03*
X26132D02*
D03*
X25935D02*
D03*
X25738D02*
D03*
X25541D02*
D03*
X25344D02*
D03*
X25147D02*
D03*
X24950D02*
D03*
X24754D02*
D03*
X24557D02*
D03*
X24360D02*
D03*
X24163D02*
D03*
Y18145D02*
D03*
X24360D02*
D03*
X24557D02*
D03*
X24754D02*
D03*
X24950D02*
D03*
X25147D02*
D03*
X25344D02*
D03*
X25541D02*
D03*
X25738D02*
D03*
X25935D02*
D03*
X26132D02*
D03*
X26328D02*
D03*
X26525D02*
D03*
X26722D02*
D03*
X26919D02*
D03*
X27116D02*
D03*
X27313D02*
D03*
X27510D02*
D03*
X27706D02*
D03*
X27903D02*
D03*
X28100D02*
D03*
X28297D02*
D03*
X28494D02*
D03*
X28691D02*
D03*
X28887D02*
D03*
X29084D02*
D03*
X29281D02*
D03*
X29478D02*
D03*
X29675D02*
D03*
X29872D02*
D03*
X30069D02*
D03*
X30265D02*
D03*
X30462D02*
D03*
X30659D02*
D03*
X30856D02*
D03*
X31053D02*
D03*
D46*
X23395Y25803D02*
D03*
Y25606D02*
D03*
Y25409D02*
D03*
Y25212D02*
D03*
Y25015D02*
D03*
Y24818D02*
D03*
Y24622D02*
D03*
Y24425D02*
D03*
Y24228D02*
D03*
Y24031D02*
D03*
Y23834D02*
D03*
Y23637D02*
D03*
Y23441D02*
D03*
Y23244D02*
D03*
Y23047D02*
D03*
Y22850D02*
D03*
Y22653D02*
D03*
Y22456D02*
D03*
Y22259D02*
D03*
Y22063D02*
D03*
Y21866D02*
D03*
Y21669D02*
D03*
Y21472D02*
D03*
Y21275D02*
D03*
Y21078D02*
D03*
Y20881D02*
D03*
Y20685D02*
D03*
Y20488D02*
D03*
Y20291D02*
D03*
Y20094D02*
D03*
Y19897D02*
D03*
Y19700D02*
D03*
Y19504D02*
D03*
Y19307D02*
D03*
Y19110D02*
D03*
Y18913D02*
D03*
X31821D02*
D03*
Y19110D02*
D03*
Y19307D02*
D03*
Y19504D02*
D03*
Y19700D02*
D03*
Y19897D02*
D03*
Y20094D02*
D03*
Y20291D02*
D03*
Y20488D02*
D03*
Y20685D02*
D03*
Y20881D02*
D03*
Y21078D02*
D03*
Y21275D02*
D03*
Y21472D02*
D03*
Y21669D02*
D03*
Y21866D02*
D03*
Y22063D02*
D03*
Y22259D02*
D03*
Y22456D02*
D03*
Y22653D02*
D03*
Y22850D02*
D03*
Y23047D02*
D03*
Y23244D02*
D03*
Y23441D02*
D03*
Y23637D02*
D03*
Y23834D02*
D03*
Y24031D02*
D03*
Y24228D02*
D03*
Y24425D02*
D03*
Y24622D02*
D03*
Y24818D02*
D03*
Y25015D02*
D03*
Y25212D02*
D03*
Y25409D02*
D03*
Y25606D02*
D03*
Y25803D02*
D03*
D47*
X27608Y22358D02*
D03*
D48*
X18250Y30150D02*
D03*
X17994D02*
D03*
X17739D02*
D03*
X17483D02*
D03*
X17227D02*
D03*
X16971D02*
D03*
X16715D02*
D03*
X16459D02*
D03*
X16203D02*
D03*
X15947D02*
D03*
X15947Y32783D02*
D03*
X16203D02*
D03*
X16459D02*
D03*
X16715D02*
D03*
X16971D02*
D03*
X17227D02*
D03*
X17483D02*
D03*
X17739D02*
D03*
X17994D02*
D03*
X18250D02*
D03*
D49*
X30163Y10212D02*
D03*
X29967D02*
D03*
X29770D02*
D03*
X29573D02*
D03*
X29376D02*
D03*
X29179D02*
D03*
X28982D02*
D03*
X28785D02*
D03*
X28589D02*
D03*
X28392D02*
D03*
X28195D02*
D03*
X27998D02*
D03*
Y12928D02*
D03*
X28195D02*
D03*
X28392D02*
D03*
X28589D02*
D03*
X28785D02*
D03*
X28982D02*
D03*
X29179D02*
D03*
X29376D02*
D03*
X29573D02*
D03*
X29770D02*
D03*
X29967D02*
D03*
X30163D02*
D03*
D50*
X27722Y10487D02*
D03*
Y10684D02*
D03*
Y10881D02*
D03*
Y11078D02*
D03*
Y11275D02*
D03*
Y11472D02*
D03*
Y11669D02*
D03*
Y11865D02*
D03*
Y12062D02*
D03*
Y12259D02*
D03*
Y12456D02*
D03*
Y12653D02*
D03*
X30439D02*
D03*
Y12456D02*
D03*
Y12259D02*
D03*
Y12062D02*
D03*
Y11865D02*
D03*
Y11669D02*
D03*
Y11472D02*
D03*
Y11275D02*
D03*
Y11078D02*
D03*
Y10881D02*
D03*
Y10684D02*
D03*
Y10487D02*
D03*
D51*
X12295Y21097D02*
D03*
D52*
X11295Y24947D02*
D03*
X12295D02*
D03*
X13295D02*
D03*
D53*
X12295Y19747D02*
D03*
D54*
X9820Y30720D02*
D03*
D55*
X4620Y31720D02*
D03*
Y30720D02*
D03*
Y29720D02*
D03*
D56*
X8470Y30720D02*
D03*
D57*
X43808Y16797D02*
D03*
X33701Y14971D02*
D03*
D58*
X42903Y19100D02*
D03*
X43808D02*
D03*
X44714D02*
D03*
X34607Y17274D02*
D03*
X33701D02*
D03*
X32796D02*
D03*
D59*
X43504Y3740D02*
D03*
Y35630D02*
D03*
X3740Y3740D02*
D03*
Y35630D02*
D03*
M02*
